<svg width="90" height="90" viewBox="0 0 90 90" fill="none" xmlns="http://www.w3.org/2000/svg">
<g filter="url(#filter0_d_333_18)">
<rect x="20" y="10" width="50" height="50" rx="15" fill="#EDE7F2"/>
</g>
<path fill-rule="evenodd" clip-rule="evenodd" d="M45.3808 23.5779C45.5671 23.4107 45.8136 23.323 46.0658 23.3343C51.3984 23.4939 55.8551 27.3651 56.6629 32.539C56.668 32.5699 56.668 32.6014 56.6629 32.6323C56.6802 32.8771 56.5975 33.1187 56.4329 33.3035C56.2684 33.4883 56.0355 33.6011 55.7859 33.6171L46.8265 34.2079C46.5302 34.2342 46.2364 34.1367 46.0172 33.9394C45.798 33.7421 45.6737 33.4632 45.6749 33.1714L45.0727 24.3708V24.2257C45.0836 23.9782 45.1945 23.7452 45.3808 23.5779ZM44.7663 36.5091L52.5318 36.0116L52.5846 36.0323C52.9181 36.0378 53.2357 36.173 53.4675 36.4082C53.6993 36.6434 53.8264 36.9594 53.8207 37.2866C53.5147 41.7457 50.2455 45.4714 45.7966 46.4313C41.3476 47.3911 36.7869 45.3547 34.6024 41.4329C33.9601 40.3033 33.5542 39.0593 33.4085 37.7738C33.352 37.3928 33.3273 37.008 33.3346 36.6232C33.3493 31.8816 36.7252 27.7889 41.4487 26.7861C42.0206 26.679 42.5939 26.9645 42.8434 27.4806C42.9055 27.5742 42.9552 27.6752 42.9913 27.7812C43.0798 29.1481 43.1717 30.502 43.2631 31.8503C43.3354 32.915 43.4074 33.9761 43.4773 35.0372C43.4737 35.2872 43.513 35.536 43.5935 35.7732C43.7831 36.2399 44.2549 36.5359 44.7663 36.5091Z" fill="#75578E"/>
<defs>
<filter id="filter0_d_333_18" x="0" y="0" width="90" height="90" filterUnits="userSpaceOnUse" color-interpolation-filters="sRGB">
<feFlood flood-opacity="0" result="BackgroundImageFix"/>
<feColorMatrix in="SourceAlpha" type="matrix" values="0 0 0 0 0 0 0 0 0 0 0 0 0 0 0 0 0 0 127 0" result="hardAlpha"/>
<feOffset dy="10"/>
<feGaussianBlur stdDeviation="10"/>
<feColorMatrix type="matrix" values="0 0 0 0 0.0235294 0 0 0 0 0.301961 0 0 0 0 0.227451 0 0 0 0.03 0"/>
<feBlend mode="normal" in2="BackgroundImageFix" result="effect1_dropShadow_333_18"/>
<feBlend mode="normal" in="SourceGraphic" in2="effect1_dropShadow_333_18" result="shape"/>
</filter>
</defs>
</svg>
