<svg width="90" height="90" viewBox="0 0 90 90" fill="none" xmlns="http://www.w3.org/2000/svg">
<g filter="url(#filter0_d_1_543)">
<rect x="20" y="10" width="50" height="50" rx="15" fill="#DAE6FF"/>
</g>
<path fill-rule="evenodd" clip-rule="evenodd" d="M35 33.6699C35 28.8817 38.8404 25 43.5777 25C45.8526 25 48.0343 25.9134 49.643 27.5394C51.2516 29.1653 52.1553 31.3705 52.1553 33.6699C52.1553 38.4582 48.315 42.3399 43.5777 42.3399C38.8404 42.3399 35 38.4582 35 33.6699ZM52.0134 40.6543L54.568 42.7164H54.6124C55.1292 43.2388 55.1292 44.0858 54.6124 44.6082C54.0955 45.1306 53.2576 45.1306 52.7407 44.6082L50.6207 42.1784C50.4203 41.9766 50.3077 41.7023 50.3077 41.4164C50.3077 41.1304 50.4203 40.8561 50.6207 40.6543C51.0073 40.2704 51.6269 40.2704 52.0134 40.6543Z" fill="#6E9CFD"/>
<defs>
<filter id="filter0_d_1_543" x="0" y="0" width="90" height="90" filterUnits="userSpaceOnUse" color-interpolation-filters="sRGB">
<feFlood flood-opacity="0" result="BackgroundImageFix"/>
<feColorMatrix in="SourceAlpha" type="matrix" values="0 0 0 0 0 0 0 0 0 0 0 0 0 0 0 0 0 0 127 0" result="hardAlpha"/>
<feOffset dy="10"/>
<feGaussianBlur stdDeviation="10"/>
<feColorMatrix type="matrix" values="0 0 0 0 0.770833 0 0 0 0 0.619075 0 0 0 0 0.56849 0 0 0 0.1 0"/>
<feBlend mode="normal" in2="BackgroundImageFix" result="effect1_dropShadow_1_543"/>
<feBlend mode="normal" in="SourceGraphic" in2="effect1_dropShadow_1_543" result="shape"/>
</filter>
</defs>
</svg>
