<svg width="90" height="90" viewBox="0 0 90 90" fill="none" xmlns="http://www.w3.org/2000/svg">
<g filter="url(#filter0_d_1_455)">
<rect x="19.9998" y="10.0001" width="50" height="50" rx="15" fill="#E9E6FF"/>
</g>
<path fill-rule="evenodd" clip-rule="evenodd" d="M46.4497 27.8803H49.5197C53.2097 27.8803 55.0097 29.8503 54.9997 33.8903V38.7603C54.9997 42.6203 52.6197 45.0003 48.7497 45.0003H41.2397C37.3897 45.0003 34.9997 42.6203 34.9997 38.7503V31.2403C34.9997 27.1003 36.8397 25.0003 40.4697 25.0003H42.0497C42.9807 24.9903 43.8497 25.4203 44.4197 26.1503L45.2997 27.3203C45.5797 27.6703 45.9997 27.8803 46.4497 27.8803ZM40.3697 38.2902H49.6297C50.0397 38.2902 50.3697 37.9502 50.3697 37.5402C50.3697 37.1202 50.0397 36.7902 49.6297 36.7902H40.3697C39.9497 36.7902 39.6197 37.1202 39.6197 37.5402C39.6197 37.9502 39.9497 38.2902 40.3697 38.2902Z" fill="#8E7EFC"/>
<defs>
<filter id="filter0_d_1_455" x="-0.000244141" y="6.10352e-05" width="90" height="90" filterUnits="userSpaceOnUse" color-interpolation-filters="sRGB">
<feFlood flood-opacity="0" result="BackgroundImageFix"/>
<feColorMatrix in="SourceAlpha" type="matrix" values="0 0 0 0 0 0 0 0 0 0 0 0 0 0 0 0 0 0 127 0" result="hardAlpha"/>
<feOffset dy="10"/>
<feGaussianBlur stdDeviation="10"/>
<feColorMatrix type="matrix" values="0 0 0 0 0.770833 0 0 0 0 0.619075 0 0 0 0 0.56849 0 0 0 0.1 0"/>
<feBlend mode="normal" in2="BackgroundImageFix" result="effect1_dropShadow_1_455"/>
<feBlend mode="normal" in="SourceGraphic" in2="effect1_dropShadow_1_455" result="shape"/>
</filter>
</defs>
</svg>
