<svg width="90" height="90" viewBox="0 0 90 90" fill="none" xmlns="http://www.w3.org/2000/svg">
<g filter="url(#filter0_d_333_15)">
<rect x="19.9995" y="10.0011" width="50" height="50" rx="15" fill="#E7F2EF"/>
</g>
<path fill-rule="evenodd" clip-rule="evenodd" d="M54.7989 31.6704L55.6392 32.5104C56.3045 33.1637 56.6663 34.0504 56.6663 34.9837C56.678 35.917 56.3162 36.8049 55.6626 37.4687C55.6548 37.4773 55.647 37.4848 55.6392 37.4923C55.6354 37.4961 55.6315 37.4998 55.6276 37.5037L54.7989 38.332C54.4722 38.6587 54.2854 39.102 54.2854 39.5699V40.7704C54.2854 42.707 52.7098 44.2832 50.7725 44.2832H49.5704C49.1035 44.2832 48.66 44.4687 48.3333 44.7954L47.493 45.6354C46.8044 46.3249 45.9057 46.662 45.0071 46.662C44.1084 46.662 43.2097 46.3249 42.5212 45.6482L41.6692 44.7954C41.3424 44.4687 40.8989 44.2832 40.4321 44.2832H39.23C37.2926 44.2832 35.717 42.707 35.717 40.7704V39.5699C35.717 39.102 35.5303 38.6587 35.2035 38.3204L34.3632 37.492C32.9977 36.1282 32.986 33.8987 34.3515 32.5232L35.2035 31.6704C35.5303 31.3437 35.717 30.9004 35.717 30.422V29.232C35.717 27.2954 37.2926 25.7215 39.23 25.7215H40.4321C40.8989 25.7215 41.3424 25.5337 41.6692 25.207L42.5095 24.367C43.875 22.9915 46.1041 22.9915 47.4813 24.3565L48.3333 25.207C48.66 25.5337 49.1035 25.7215 49.5704 25.7215H50.7725C52.7098 25.7215 54.2854 27.2954 54.2854 29.232V30.4349C54.2854 30.9004 54.4722 31.3437 54.7989 31.6704ZM41.996 39.0204C42.2761 39.0204 42.5329 38.9154 42.7196 38.7171L48.7184 32.7216C49.1152 32.3249 49.1152 31.6704 48.7184 31.2737C48.3216 30.8782 47.6797 30.8782 47.2829 31.2737L41.2841 37.2704C40.8873 37.6671 40.8873 38.3204 41.2841 38.7171C41.4708 38.9154 41.7276 39.0204 41.996 39.0204ZM46.9794 37.9937C46.9794 38.5654 47.4346 39.0204 48.0065 39.0204C48.5667 39.0204 49.0218 38.5654 49.0218 37.9937C49.0218 37.4349 48.5667 36.9787 48.0065 36.9787C47.4346 36.9787 46.9794 37.4349 46.9794 37.9937ZM42.0076 30.982C42.5678 30.982 43.023 31.437 43.023 31.997C43.023 32.5698 42.5678 33.0237 42.0076 33.0237C41.4474 33.0237 40.9806 32.5698 40.9806 31.997C40.9806 31.437 41.4474 30.982 42.0076 30.982Z" fill="#51A690"/>
<defs>
<filter id="filter0_d_333_15" x="-0.000488281" y="0.00109863" width="90" height="90" filterUnits="userSpaceOnUse" color-interpolation-filters="sRGB">
<feFlood flood-opacity="0" result="BackgroundImageFix"/>
<feColorMatrix in="SourceAlpha" type="matrix" values="0 0 0 0 0 0 0 0 0 0 0 0 0 0 0 0 0 0 127 0" result="hardAlpha"/>
<feOffset dy="10"/>
<feGaussianBlur stdDeviation="10"/>
<feColorMatrix type="matrix" values="0 0 0 0 0.0235294 0 0 0 0 0.301961 0 0 0 0 0.227451 0 0 0 0.03 0"/>
<feBlend mode="normal" in2="BackgroundImageFix" result="effect1_dropShadow_333_15"/>
<feBlend mode="normal" in="SourceGraphic" in2="effect1_dropShadow_333_15" result="shape"/>
</filter>
</defs>
</svg>
