<svg width="90" height="90" viewBox="0 0 90 90" fill="none" xmlns="http://www.w3.org/2000/svg">
<g filter="url(#filter0_d_333_16)">
<rect x="20" y="10.0001" width="50" height="50" rx="15" fill="#FAF3D8"/>
</g>
<path fill-rule="evenodd" clip-rule="evenodd" d="M49.8514 30.6051C49.8514 33.3464 47.666 35.5445 44.9405 35.5445C42.2151 35.5445 40.0297 33.3464 40.0297 30.6051C40.0297 27.8627 42.2151 25.6667 44.9405 25.6667C47.666 25.6667 49.8514 27.8627 49.8514 30.6051ZM44.9405 44.3334C40.9374 44.3334 37.5194 43.6988 37.5194 41.1603C37.5194 38.6207 40.9155 37.963 44.9405 37.963C48.9435 37.963 52.3616 38.5976 52.3616 41.1372C52.3616 43.6757 48.9655 44.3334 44.9405 44.3334ZM51.95 30.6942C51.95 32.0916 51.5332 33.3935 50.8019 34.4757C50.7267 34.5871 50.7936 34.7373 50.9262 34.7604C51.109 34.792 51.2981 34.8098 51.4903 34.8151C53.4072 34.8655 55.1277 33.6246 55.6031 31.7565C56.3071 28.9815 54.2398 26.4903 51.6073 26.4903C51.3211 26.4903 51.0474 26.5208 50.781 26.5754C50.7445 26.5838 50.7058 26.6006 50.6849 26.6332C50.6598 26.6731 50.6786 26.7267 50.7037 26.7614C51.4945 27.8762 51.95 29.2358 51.95 30.6942ZM55.1246 36.7647C56.4126 37.018 57.2598 37.5349 57.6108 38.2862C57.9075 38.9029 57.9075 39.6185 57.6108 40.2342C57.0739 41.3994 55.3429 41.7735 54.6702 41.8701C54.5312 41.8911 54.4195 41.7703 54.4341 41.6306C54.7778 38.4017 52.044 36.8709 51.3368 36.5189C51.3065 36.5031 51.3002 36.4789 51.3033 36.4642C51.3054 36.4537 51.3179 36.4369 51.3409 36.4338C52.8713 36.4054 54.5166 36.6155 55.1246 36.7647ZM38.51 34.8149C38.7022 34.8097 38.8902 34.7928 39.0741 34.7603C39.2067 34.7372 39.2736 34.5869 39.1984 34.4755C38.4671 33.3933 38.0503 32.0915 38.0503 30.694C38.0503 29.2356 38.5058 27.876 39.2966 26.7612C39.3216 26.7266 39.3394 26.673 39.3154 26.633C39.2945 26.6015 39.2548 26.5837 39.2193 26.5753C38.9518 26.5206 38.6781 26.4901 38.3919 26.4901C35.7594 26.4901 33.6921 28.9814 34.3972 31.7563C34.8725 33.6245 36.5931 34.8653 38.51 34.8149ZM38.6964 36.4636C38.6996 36.4794 38.6933 36.5025 38.664 36.5193C37.9558 36.8713 35.222 38.4022 35.5656 41.63C35.5803 41.7707 35.4695 41.8905 35.3306 41.8706C34.6579 41.7739 32.9269 41.3998 32.3899 40.2346C32.0922 39.6178 32.0922 38.9034 32.3899 38.2866C32.7409 37.5353 33.5871 37.0184 34.8751 36.7641C35.4842 36.616 37.1284 36.4058 38.6599 36.4342C38.6828 36.4374 38.6943 36.4542 38.6964 36.4636Z" fill="#FFCF00"/>
<defs>
<filter id="filter0_d_333_16" x="0" y="0.00012207" width="90" height="90" filterUnits="userSpaceOnUse" color-interpolation-filters="sRGB">
<feFlood flood-opacity="0" result="BackgroundImageFix"/>
<feColorMatrix in="SourceAlpha" type="matrix" values="0 0 0 0 0 0 0 0 0 0 0 0 0 0 0 0 0 0 127 0" result="hardAlpha"/>
<feOffset dy="10"/>
<feGaussianBlur stdDeviation="10"/>
<feColorMatrix type="matrix" values="0 0 0 0 0.745833 0 0 0 0 0.649564 0 0 0 0 0.450608 0 0 0 0.05 0"/>
<feBlend mode="normal" in2="BackgroundImageFix" result="effect1_dropShadow_333_16"/>
<feBlend mode="normal" in="SourceGraphic" in2="effect1_dropShadow_333_16" result="shape"/>
</filter>
</defs>
</svg>
