<svg width="176" height="41" viewBox="0 0 176 41" fill="none" xmlns="http://www.w3.org/2000/svg">
<g clip-path="url(#clip0_1_40)">
<path d="M26.6225 13.6261C24.2607 12.2774 23.4144 9.24231 24.7944 6.87813C26.158 4.5421 29.2265 3.70506 31.6167 5.07002C33.9785 6.41873 34.8248 9.4538 33.4448 11.818C32.0648 14.1822 29.0127 14.991 26.6225 13.6261Z" fill="white" fill-opacity="0.8"/>
<path d="M64.058 21.9179C68.0172 15.1349 65.636 6.34482 58.7783 2.4287C51.8922 -1.50368 43.0337 0.867868 39.0744 7.6508L28.5273 25.7199C28.5273 25.7199 55.1208 37.2287 64.058 21.9179Z" fill="white" fill-opacity="0.8"/>
<path d="M5.02706 20.2397C2.26706 24.968 3.89827 31.0782 8.67872 33.8081C13.4592 36.538 19.6082 34.9084 22.3682 30.18L29.7118 17.5992C29.7402 17.6155 11.237 9.60087 5.02706 20.2397ZM12.3751 27.4755C11.1231 26.7605 10.6902 25.1623 11.413 23.9239C12.1359 22.6856 13.7517 22.2573 15.0037 22.9723C16.2557 23.6873 16.6887 25.2855 15.9658 26.5239C15.2714 27.7785 13.6556 28.2067 12.3751 27.4755Z" fill="white" fill-opacity="0.8"/>
<path d="M77.3128 24.6774C76.3149 24.1221 75.504 23.3818 74.9427 22.3948C74.3813 21.4077 74.0695 20.3589 74.0695 19.1251C74.0695 17.8912 74.3813 16.8424 74.9427 15.8554C75.504 14.8683 76.3149 14.128 77.3128 13.5727C78.3108 13.0175 79.4335 12.7708 80.7433 12.7708C81.7413 12.7708 82.6768 12.9558 83.55 13.326C84.4233 13.6961 85.1093 14.1897 85.6707 14.8683L84.1738 16.2872C83.3006 15.3001 82.1779 14.8683 80.868 14.8683C79.9948 14.8683 79.2464 15.0534 78.5603 15.4235C77.8742 15.7937 77.3752 16.2872 77.001 16.9658C76.6267 17.6444 76.4396 18.3848 76.4396 19.1868C76.4396 19.9888 76.6267 20.7908 77.001 21.4077C77.3752 22.0863 77.9366 22.5798 78.5603 22.95C79.2464 23.3201 79.9948 23.5052 80.868 23.5052C82.1779 23.5052 83.3006 23.0117 84.1738 22.0246L85.6707 23.4435C85.1093 24.1221 84.3609 24.6157 83.55 24.9858C82.6768 25.356 81.7413 25.5411 80.7433 25.5411C79.4959 25.5411 78.3108 25.2326 77.3128 24.6774Z" fill="white" fill-opacity="0.8"/>
<path d="M90.0367 24.6771C89.0387 24.1219 88.2279 23.3816 87.6042 22.3945C87.0428 21.4074 86.731 20.3587 86.731 19.1248C86.731 17.9527 87.0428 16.8422 87.6042 15.8551C88.1655 14.868 88.9764 14.1277 90.0367 13.5725C91.0347 13.0173 92.2197 12.7705 93.4672 12.7705C94.7146 12.7705 95.8997 13.0173 96.8976 13.5725C97.8956 14.1277 98.7064 14.868 99.3301 15.8551C99.8915 16.8422 100.203 17.891 100.203 19.1248C100.203 20.3587 99.8915 21.4074 99.3301 22.3945C98.7688 23.3816 97.958 24.1219 96.8976 24.6771C95.8997 25.2324 94.7146 25.4791 93.4672 25.4791C92.1574 25.5408 91.0347 25.2324 90.0367 24.6771ZM95.7126 22.9497C96.3987 22.5796 96.8976 22.086 97.2719 21.4074C97.6461 20.7288 97.8332 19.9885 97.8332 19.1865C97.8332 18.3845 97.6461 17.6442 97.2719 16.9656C96.8976 16.287 96.3987 15.7934 95.7126 15.4233C95.0265 15.0531 94.278 14.868 93.4672 14.868C92.6563 14.868 91.9079 15.0531 91.2218 15.4233C90.5357 15.7934 90.0367 16.287 89.6625 16.9656C89.2882 17.6442 89.1011 18.3845 89.1011 19.1865C89.1011 19.9885 89.2882 20.7288 89.6625 21.4074C90.0367 22.086 90.5357 22.5796 91.2218 22.9497C91.9079 23.3199 92.6563 23.505 93.4672 23.505C94.278 23.505 95.0265 23.3199 95.7126 22.9497Z" fill="white" fill-opacity="0.8"/>
<path d="M114.05 25.3561V17.2127L109.933 23.9989H108.873L104.756 17.3361V25.4178H102.573V13.0793H104.507L109.434 21.2227L114.299 13.0793H116.233V25.4178H114.05V25.3561Z" fill="white" fill-opacity="0.8"/>
<path d="M127.584 13.5729C128.395 13.9431 129.019 14.4366 129.456 15.1152C129.892 15.7939 130.079 16.5342 130.079 17.4596C130.079 18.3232 129.892 19.1252 129.456 19.8039C129.019 20.4825 128.395 20.976 127.584 21.3462C126.774 21.7163 125.838 21.9014 124.778 21.9014H121.971V25.4796H119.663V13.1411H124.778C125.838 13.0177 126.774 13.2028 127.584 13.5729ZM126.898 19.2486C127.397 18.8168 127.709 18.1999 127.709 17.4596C127.709 16.6576 127.46 16.0406 126.898 15.6705C126.399 15.2386 125.589 15.0536 124.591 15.0536H121.909V19.9272H124.591C125.651 19.8656 126.399 19.6188 126.898 19.2486Z" fill="white" fill-opacity="0.8"/>
<path d="M139.81 22.5189H133.573L132.325 25.3568H129.955L135.569 13.0183H137.876L143.49 25.3568H141.057L139.81 22.5189ZM139.061 20.7299L136.691 15.3626L134.384 20.7299H139.061Z" fill="white" fill-opacity="0.8"/>
<path d="M156.151 13.0183V25.3568H154.217L147.356 17.0283V25.3568H145.048V13.0183H146.982L153.843 21.3468V13.0183H156.151Z" fill="white" fill-opacity="0.8"/>
<path d="M164.883 20.9761V25.2945H162.576V20.9761L157.71 12.9561H160.205L163.823 18.9402L167.503 12.9561H169.811L164.883 20.9761Z" fill="white" fill-opacity="0.8"/>
</g>
<defs>
<clipPath id="clip0_1_40">
<rect width="176" height="41" fill="white"/>
</clipPath>
</defs>
</svg>
