<svg width="90" height="90" viewBox="0 0 90 90" fill="none" xmlns="http://www.w3.org/2000/svg">
<g filter="url(#filter0_d_333_17)">
<rect x="19.9999" y="10" width="50" height="50" rx="15" fill="#C0F2EF"/>
</g>
<path fill-rule="evenodd" clip-rule="evenodd" d="M33.3333 33.4482C33.3333 27.8619 37.8136 23.3333 43.3405 23.3333C45.9946 23.3333 48.54 24.399 50.4167 26.2959C52.2934 28.1928 53.3477 30.7656 53.3477 33.4482C53.3477 39.0345 48.8673 43.5631 43.3405 43.5631C37.8136 43.5631 33.3333 39.0345 33.3333 33.4482ZM53.1822 41.5966L56.1626 44.0024H56.2143C56.8173 44.6119 56.8173 45.6001 56.2143 46.2095C55.6114 46.819 54.6337 46.819 54.0308 46.2095L51.5574 43.3748C51.3236 43.1393 51.1922 42.8194 51.1922 42.4857C51.1922 42.1521 51.3236 41.8321 51.5574 41.5966C52.0084 41.1487 52.7312 41.1487 53.1822 41.5966Z" fill="#00A198"/>
<defs>
<filter id="filter0_d_333_17" x="-6.10352e-05" y="0" width="90" height="90" filterUnits="userSpaceOnUse" color-interpolation-filters="sRGB">
<feFlood flood-opacity="0" result="BackgroundImageFix"/>
<feColorMatrix in="SourceAlpha" type="matrix" values="0 0 0 0 0 0 0 0 0 0 0 0 0 0 0 0 0 0 127 0" result="hardAlpha"/>
<feOffset dy="10"/>
<feGaussianBlur stdDeviation="10"/>
<feColorMatrix type="matrix" values="0 0 0 0 0.770833 0 0 0 0 0.619075 0 0 0 0 0.56849 0 0 0 0.1 0"/>
<feBlend mode="normal" in2="BackgroundImageFix" result="effect1_dropShadow_333_17"/>
<feBlend mode="normal" in="SourceGraphic" in2="effect1_dropShadow_333_17" result="shape"/>
</filter>
</defs>
</svg>
